<svg xmlns="http://www.w3.org/2000/svg" xmlns:xlink="http://www.w3.org/1999/xlink" style="display:block;shape-rendering:auto" width="200" height="200" preserveAspectRatio="xMidYMid" viewBox="0 0 100 100"><g transform="rotate(0 50 50)"><rect width="3" height="14" x="48.5" y="27" fill="#74787d" rx=".28" ry=".28"><animate attributeName="opacity" begin="-0.8484848484848485s" dur="0.9090909090909091s" keyTimes="0;1" repeatCount="indefinite" values="1;0"/></rect></g><g transform="rotate(24 50 50)"><rect width="3" height="14" x="48.5" y="27" fill="#74787d" rx=".28" ry=".28"><animate attributeName="opacity" begin="-0.7878787878787878s" dur="0.9090909090909091s" keyTimes="0;1" repeatCount="indefinite" values="1;0"/></rect></g><g transform="rotate(48 50 50)"><rect width="3" height="14" x="48.5" y="27" fill="#74787d" rx=".28" ry=".28"><animate attributeName="opacity" begin="-0.7272727272727273s" dur="0.9090909090909091s" keyTimes="0;1" repeatCount="indefinite" values="1;0"/></rect></g><g transform="rotate(72 50 50)"><rect width="3" height="14" x="48.5" y="27" fill="#74787d" rx=".28" ry=".28"><animate attributeName="opacity" begin="-0.6666666666666666s" dur="0.9090909090909091s" keyTimes="0;1" repeatCount="indefinite" values="1;0"/></rect></g><g transform="rotate(96 50 50)"><rect width="3" height="14" x="48.5" y="27" fill="#74787d" rx=".28" ry=".28"><animate attributeName="opacity" begin="-0.6060606060606061s" dur="0.9090909090909091s" keyTimes="0;1" repeatCount="indefinite" values="1;0"/></rect></g><g transform="rotate(120 50 50)"><rect width="3" height="14" x="48.5" y="27" fill="#74787d" rx=".28" ry=".28"><animate attributeName="opacity" begin="-0.5454545454545454s" dur="0.9090909090909091s" keyTimes="0;1" repeatCount="indefinite" values="1;0"/></rect></g><g transform="rotate(144 50 50)"><rect width="3" height="14" x="48.5" y="27" fill="#74787d" rx=".28" ry=".28"><animate attributeName="opacity" begin="-0.48484848484848486s" dur="0.9090909090909091s" keyTimes="0;1" repeatCount="indefinite" values="1;0"/></rect></g><g transform="rotate(168 50 50)"><rect width="3" height="14" x="48.5" y="27" fill="#74787d" rx=".28" ry=".28"><animate attributeName="opacity" begin="-0.42424242424242425s" dur="0.9090909090909091s" keyTimes="0;1" repeatCount="indefinite" values="1;0"/></rect></g><g transform="rotate(192 50 50)"><rect width="3" height="14" x="48.5" y="27" fill="#74787d" rx=".28" ry=".28"><animate attributeName="opacity" begin="-0.36363636363636365s" dur="0.9090909090909091s" keyTimes="0;1" repeatCount="indefinite" values="1;0"/></rect></g><g transform="rotate(216 50 50)"><rect width="3" height="14" x="48.5" y="27" fill="#74787d" rx=".28" ry=".28"><animate attributeName="opacity" begin="-0.30303030303030304s" dur="0.9090909090909091s" keyTimes="0;1" repeatCount="indefinite" values="1;0"/></rect></g><g transform="rotate(240 50 50)"><rect width="3" height="14" x="48.5" y="27" fill="#74787d" rx=".28" ry=".28"><animate attributeName="opacity" begin="-0.24242424242424243s" dur="0.9090909090909091s" keyTimes="0;1" repeatCount="indefinite" values="1;0"/></rect></g><g transform="rotate(264 50 50)"><rect width="3" height="14" x="48.5" y="27" fill="#74787d" rx=".28" ry=".28"><animate attributeName="opacity" begin="-0.18181818181818182s" dur="0.9090909090909091s" keyTimes="0;1" repeatCount="indefinite" values="1;0"/></rect></g><g transform="rotate(288 50 50)"><rect width="3" height="14" x="48.5" y="27" fill="#74787d" rx=".28" ry=".28"><animate attributeName="opacity" begin="-0.12121212121212122s" dur="0.9090909090909091s" keyTimes="0;1" repeatCount="indefinite" values="1;0"/></rect></g><g transform="rotate(312 50 50)"><rect width="3" height="14" x="48.5" y="27" fill="#74787d" rx=".28" ry=".28"><animate attributeName="opacity" begin="-0.06060606060606061s" dur="0.9090909090909091s" keyTimes="0;1" repeatCount="indefinite" values="1;0"/></rect></g><g transform="rotate(336 50 50)"><rect width="3" height="14" x="48.5" y="27" fill="#74787d" rx=".28" ry=".28"><animate attributeName="opacity" begin="0s" dur="0.9090909090909091s" keyTimes="0;1" repeatCount="indefinite" values="1;0"/></rect></g></svg>