<svg xmlns="http://www.w3.org/2000/svg" width="544.535" height="653" viewBox="0 0 544.535 653"><defs><style>.a{fill:#f7fcfe}.b{fill:#ffcd0c}.c{fill:#d5d5d5}.d{filter:url(#c)}.e{filter:url(#a)}</style><filter id="a" width="544.535" height="653" x="0" y="0" filterUnits="userSpaceOnUse"><feOffset dy="3" input="SourceAlpha"/><feGaussianBlur result="b"/><feFlood flood-opacity=".161"/><feComposite in2="b" operator="in"/><feComposite in="SourceGraphic"/></filter><filter id="c" width="314.535" height="80.329" x="110" y="0" filterUnits="userSpaceOnUse"><feOffset dy="3" input="SourceAlpha"/><feGaussianBlur result="d"/><feFlood flood-opacity=".161"/><feComposite in2="d" operator="in"/><feComposite in="SourceGraphic"/></filter></defs><g><g class="e"><path d="M-3.694,0H274.229L412.535,650H-132Z" class="a" transform="translate(-684) matrix(1, 0, 0, 1, 684, 0) translate(132)"/></g><g><path d="M61,60.67a60.626,60.626,0,0,1-23.673-4.763,61,61,0,0,1-10.338-5.59,61.41,61.41,0,0,1-9.015-7.4,61.431,61.431,0,0,1-7.45-8.977A61.042,61.042,0,0,1,4.883,23.629,60.6,60.6,0,0,1,0,0H122a60.6,60.6,0,0,1-4.883,23.629,61.042,61.042,0,0,1-5.641,10.306,61.439,61.439,0,0,1-7.45,8.977,61.4,61.4,0,0,1-9.015,7.4,61,61,0,0,1-10.338,5.59A60.63,60.63,0,0,1,61,60.67Z" class="b" transform="translate(-684) translate(794) translate(97 57.33)"/><g class="d"><path d="M-3.694,0H274.229l18.306,77.329H-22Z" class="c" transform="translate(-684) translate(794) matrix(1, 0, 0, 1, -110, 0) translate(132)"/></g></g></g></svg>