<svg xmlns="http://www.w3.org/2000/svg" xmlns:xlink="http://www.w3.org/1999/xlink" id="Group_1_1_" x="0" y="0" version="1.1" viewBox="-256 352 100 100" xml:space="preserve" style="enable-background:new -256 352 100 100"><style type="text/css">.st0{fill:#92959a}.st1{fill:#069fe3}</style><g id="Ellipse_1_copy_2_xA0_Image_1_"><path d="M-204.7,363.4v9.8c16.2,0.7,29.2,14.1,29.2,30.5c0,16.8-13.6,30.6-30.4,30.6c-16.9,0-30.6-13.6-30.6-30.5 c0-1.1,0.1-2.1,0.2-3.2h-9.8c-0.1,1.1-0.2,2.1-0.2,3.2c0,22.2,18.1,40.4,40.2,40.4c22.2,0,40.2-18.1,40.2-40.4 C-165.7,381.9-183.1,364-204.7,363.4z" class="st0"/></g><g id="Rectangle_2_copy"><g><polygon points="-216.5 367.1 -204.3 379.3 -204.3 354.8" class="st0"/></g></g><g id="Layer_4"><path d="M-206.5,418.5c-7.2-0.2-13.1-6-13.1-13.3c0-7.4,6-13.4,13.3-13.4c6.1,0,11.4,4.2,12.8,10h10.3 c-1.8-11-11.3-19.4-22.7-19.4c-12.7,0-23,10.4-23,23c0,12.5,10,22.7,22.4,23C-206.5,428.4-206.5,418.5-206.5,418.5z" class="st1"/></g><g id="Rectangle_2_copy_2"><g><polygon points="-201.2 400.6 -189.3 413.6 -177.6 400.8" class="st1"/></g></g></svg>