<?xml version="1.0" encoding="UTF-8"?>
<svg width="734px" height="704px" viewBox="0 0 734 704" version="1.1" xmlns="http://www.w3.org/2000/svg" xmlns:xlink="http://www.w3.org/1999/xlink">
    <!-- Generator: Sketch 52.4 (67378) - http://www.bohemiancoding.com/sketch -->
    <title>cloud-item</title>
    <desc>Created with Sketch.</desc>
    <g id="Page-1" stroke="none" stroke-width="1" fill="none" fill-rule="evenodd">
        <g id="cloud-item">
            <path d="M24.00598,435.25729 C23.892168,435.123888 23.8114132,434.96553 23.77027,434.79507 C-7.48106754,305.713937 36.7571245,170.045496 138.091674,84.1974084 C239.426223,-1.65067882 380.520275,-22.9910639 502.71033,29.04907 C503.279459,29.2910425 503.544673,29.9485706 503.3027,30.5177 C503.060727,31.0868294 502.403199,31.3520425 501.83407,31.11007 C379.25663,-21.01202 240.1644,0.22994 138.83696,86.54676 C38.12808,172.33666 -5.12826,305.57539 25.9481,434.26876 C26.069916,434.772914 25.8296725,435.294756 25.3674418,435.53003 C24.9052111,435.765303 24.3419152,435.652459 24.00598,435.25729 Z" id="Path" fill="#E6E6E6"></path>
            <path d="M228.72709,675.58305 C228.389934,675.188609 228.367941,674.614205 228.673948,674.195138 C228.979955,673.776071 229.533786,673.62214 230.01215,673.8232 C352.12883,724.96506 490.55166,703.4407 591.26224,617.64939 C693.54287,530.52055 736.9773,396.58776 704.61584,268.11782 C704.518281,267.729755 704.635164,267.31912 704.922459,267.0406 C705.209755,266.762079 705.623816,266.657985 706.008669,266.76753 C706.393523,266.877074 706.690701,267.183615 706.78826,267.57168 C722.492698,329.999132 720.501385,395.566645 701.03749,456.92602 C680.885119,520.159906 643.347082,576.447572 592.71461,619.35439 C491.896247,705.281502 351.295725,727.144683 229.14561,675.88885 C228.983981,675.821275 228.840586,675.7165 228.72709,675.58305 Z" id="Path" fill="#E6E6E6"></path>
            <path d="M202.84573,695.46104 C202.652963,695.235018 202.557958,694.941635 202.581645,694.64552 C202.605331,694.349406 202.745765,694.074855 202.97201,693.88235 L732.01624,243.21056 C732.487063,242.809488 733.193873,242.866032 733.594945,243.336855 C733.996017,243.807678 733.939473,244.514488 733.46865,244.91556 L204.42442,695.58733 C204.198397,695.780096 203.905012,695.875099 203.608898,695.85141 C203.312784,695.827722 203.038233,695.687286 202.84573,695.46104 Z" id="Path" fill="#E6E6E6"></path>
            <path d="M0.26752,457.65421 C0.0748457032,457.428146 -0.0200982842,457.134782 0.00358753803,456.838695 C0.0272733602,456.542608 0.16764744,456.268069 0.39381,456.07551 L529.43805,5.40372 C529.908941,5.00340459 530.615112,5.06025422 531.0159,5.53074322 C531.416688,6.00123223 531.360547,6.70746052 530.89046,7.10872 L1.84624,457.78049 C1.6201759,457.973172 1.32680836,458.068121 1.03071667,458.044437 C0.734624978,458.020753 0.460080868,457.880377 0.26752,457.65421 Z" id="Path" fill="#E6E6E6"></path>
            <path d="M202.84573,695.46104 C202.652963,695.235018 202.557958,694.941635 202.581645,694.64552 C202.605331,694.349406 202.745765,694.074855 202.97201,693.88235 L732.01624,243.21056 C732.487063,242.809488 733.193873,242.866032 733.594945,243.336855 C733.996017,243.807678 733.939473,244.514488 733.46865,244.91556 L204.42442,695.58733 C204.198397,695.780096 203.905012,695.875099 203.608898,695.85141 C203.312784,695.827722 203.038233,695.687286 202.84573,695.46104 Z" id="Path" fill="#E6E6E6"></path>
            <path d="M618.53203,186.75117 L413.77539,186.75117 L413.77539,185.67901 C413.77539,183.94039 412.36596,182.53096 410.62734,182.53096 L324.07882,182.53096 C322.34022,182.530988 320.93082,183.94041 320.93082,185.67901 L320.93082,186.75117 L115.33009,186.75117 C107.680821,186.75117 101.479861,192.952121 101.47985,200.60139 L101.47985,480.97626 C101.47985,488.625536 107.680814,494.8265 115.33009,494.8265 L618.53197,494.8265 C626.181276,494.8265 632.382264,488.625516 632.38227,480.97621 L632.38227,200.60139 C632.382259,192.952121 626.181299,186.75117 618.53203,186.75117 Z" id="Path" fill="#3F3D56"></path>
            <path d="M126.34481,216.22825 C125.629335,216.229264 125.049658,216.809165 125.04892,217.52464 L125.04892,483.46653 C125.049703,484.181907 125.629433,484.761642 126.34481,484.76243 L607.51718,484.76243 C608.232634,484.761823 608.812473,484.181984 608.81308,483.46653 L608.81308,217.52464 C608.812512,216.80909 608.23273,216.229088 607.51718,216.22825 L126.34481,216.22825 Z" id="Path" fill="#6C63FF"></path>
            <circle id="Oval" fill="#6C63FF" cx="366.50903" cy="198.56776" r="5.06425"></circle>
            <path d="M641.60388,475.93015 L593.41566,475.93015 L593.41566,470.95367 C593.41566,470.68035 593.10747,470.4588 592.72726,470.4588 L576.20559,470.4588 C575.82538,470.4588 575.51718,470.68035 575.51718,470.95367 L575.51718,475.93015 L565.19118,475.93015 L565.19118,470.95367 C565.19118,470.68035 564.88298,470.4588 564.50277,470.4588 L547.98106,470.4588 C547.60085,470.4588 547.29266,470.68035 547.29266,470.95367 L547.29266,475.93015 L536.96661,475.93015 L536.96661,470.95367 C536.96661,470.68035 536.65842,470.4588 536.27821,470.4588 L519.75654,470.4588 C519.37633,470.4588 519.06813,470.68035 519.06813,470.95367 L519.06813,475.93015 L508.74213,475.93015 L508.74213,470.95367 C508.74213,470.68035 508.43393,470.4588 508.05372,470.4588 L491.53201,470.4588 C491.1518,470.4588 490.84361,470.68035 490.84361,470.95367 L490.84361,475.93015 L480.51756,475.93015 L480.51756,470.95367 C480.51756,470.68035 480.20937,470.4588 479.82916,470.4588 L463.30749,470.4588 C462.92728,470.4588 462.61908,470.68035 462.61908,470.95367 L462.61908,475.93015 L452.29308,475.93015 L452.29308,470.95367 C452.29308,470.68035 451.98488,470.4588 451.60467,470.4588 L435.08296,470.4588 C434.70275,470.4588 434.39456,470.68035 434.39456,470.95367 L434.39456,475.93015 L424.06851,475.93015 L424.06851,470.95367 C424.06851,470.68035 423.76032,470.4588 423.38011,470.4588 L293.96034,470.4588 C293.58013,470.4588 293.27193,470.68035 293.27193,470.95367 L293.27193,475.93015 L282.94593,475.93015 L282.94593,470.95367 C282.94593,470.68035 282.63773,470.4588 282.25752,470.4588 L265.73581,470.4588 C265.3556,470.4588 265.04741,470.68035 265.04741,470.95367 L265.04741,475.93015 L254.72136,475.93015 L254.72136,470.95367 C254.72136,470.68035 254.41317,470.4588 254.03296,470.4588 L237.51129,470.4588 C237.13108,470.4588 236.82288,470.68035 236.82288,470.95367 L236.82288,475.93015 L226.49688,475.93015 L226.49688,470.95367 C226.49688,470.68035 226.18868,470.4588 225.80847,470.4588 L209.28676,470.4588 C208.90655,470.4588 208.59836,470.68035 208.59836,470.95367 L208.59836,475.93015 L198.27231,475.93015 L198.27231,470.95367 C198.27231,470.68035 197.96412,470.4588 197.58391,470.4588 L181.06224,470.4588 C180.68203,470.4588 180.37383,470.68035 180.37383,470.95367 L180.37383,475.93015 L170.04783,475.93015 L170.04783,470.95367 C170.04783,470.68035 169.73963,470.4588 169.35942,470.4588 L152.83771,470.4588 C152.4575,470.4588 152.14931,470.68035 152.14931,470.95367 L152.14931,475.93015 L141.82324,475.93015 L141.82324,470.95367 C141.82324,470.68035 141.51505,470.4588 141.13484,470.4588 L124.61319,470.4588 C124.23298,470.4588 123.92478,470.68035 123.92478,470.95367 L123.92478,475.93015 L92.25824,475.93015 C83.13358,475.93015 75.73657,481.24758 75.73657,487.80695 L75.73657,493.17739 C75.73657,499.73673 83.13357,505.05416 92.25824,505.05416 L641.60388,505.05416 C650.72854,505.05416 658.12555,499.73673 658.12555,493.17739 L658.12555,487.80698 C658.12555,481.24758 650.72854,475.93015 641.60388,475.93015 Z" id="Path" fill="#3F3D56"></path>
            <path d="M310.90932,328.11433 L168.68557,328.11433 C168.067083,328.11433 167.5657,327.612947 167.5657,326.99446 C167.5657,326.375973 168.067083,325.87459 168.68557,325.87459 L310.90932,325.87459 C311.527807,325.87459 312.02919,326.375973 312.02919,326.99446 C312.02919,327.612947 311.527807,328.11433 310.90932,328.11433 Z" id="Path" fill="#F2F2F2"></path>
            <path d="M310.90932,352.75152 L168.68557,352.75152 C168.067083,352.75152 167.5657,352.250137 167.5657,351.63165 C167.5657,351.013163 168.067083,350.51178 168.68557,350.51178 L310.90932,350.51178 C311.527807,350.51178 312.02919,351.013163 312.02919,351.63165 C312.02919,352.250137 311.527807,352.75152 310.90932,352.75152 Z" id="Path" fill="#F2F2F2"></path>
            <path d="M310.90932,377.38871 L168.68557,377.38871 C168.28468,377.389908 167.913729,377.176723 167.712937,376.829741 C167.512146,376.482758 167.512146,376.054912 167.712937,375.707929 C167.913729,375.360947 168.28468,375.147762 168.68557,375.14896 L310.90932,375.14896 C311.31021,375.147762 311.681161,375.360947 311.881953,375.707929 C312.082744,376.054912 312.082744,376.482758 311.881953,376.829741 C311.681161,377.176723 311.31021,377.389908 310.90932,377.38871 Z" id="Path" fill="#F2F2F2"></path>
            <rect id="Rectangle" fill="#FFFFFF" x="373.06222" y="263.72169" width="182.53915" height="175.81992" rx="3.35962"></rect>
            <path d="M409.61424,356.7711 C410.858076,334.778201 427.837948,316.91752 449.7399,314.563973 C471.641853,312.210425 492.028798,326.05573 497.91692,347.28224 C498.46216,347.26268 499.00692,347.24077 499.55692,347.24077 C501.433334,347.258661 503.294917,347.575374 505.07168,348.179 C527.45868,355.53012 521.56363,388.9541 498.00062,388.9541 L440.09164,388.9541 C431.816117,388.9775 423.887701,385.630788 418.132038,379.684599 C412.376375,373.73841 409.289544,365.705244 409.58234,357.43487 C409.59136,357.21395 409.601993,356.992693 409.61424,356.7711 Z" id="Path" fill="#5633D1"></path>
            <polygon id="Path" fill="#FFFFFF" points="462.397 356.07 462.397 337.649 452.478 337.649 452.478 356.07 444.559 356.07 450.998 367.224 457.438 378.377 463.877 367.224 470.316 356.07"></polygon>
        </g>
    </g>
</svg>