<svg xmlns="http://www.w3.org/2000/svg" xmlns:xlink="http://www.w3.org/1999/xlink" id="Layer_1" width="256" height="256" x="0" y="0" enable-background="new 0 0 256 256" version="1.1" viewBox="0 0 256 256" xml:space="preserve"><title>Header, Footer &amp; Blocks for Elementor</title><g><linearGradient id="SVGID_1_" x1="624.019" x2="815.981" y1="319" y2="319" gradientTransform="matrix(1 0 0 1 -592 -191)" gradientUnits="userSpaceOnUse"><stop offset="0" style="stop-color:#1488cc"/><stop offset="1" style="stop-color:#2b32b2"/></linearGradient><path fill="url(#SVGID_1_)" d="M206.656,44.953c3.242,0,5.871,2.628,5.871,5.87v154.354c0,3.243-2.629,5.871-5.871,5.871H49.34 c-3.241,0-5.868-2.628-5.868-5.871V50.823c0-3.242,2.627-5.87,5.868-5.87H206.656 M206.656,33.5H49.34 c-9.552,0-17.321,7.771-17.321,17.323v154.354c0,9.554,7.771,17.323,17.321,17.323h157.316c9.553,0,17.324-7.771,17.324-17.323 V50.823C223.98,41.271,216.209,33.5,206.656,33.5L206.656,33.5z"/></g><g><linearGradient id="SVGID_2_" x1="651.779" x2="788.221" y1="376.888" y2="376.888" gradientTransform="matrix(1 0 0 1 -592 -191)" gradientUnits="userSpaceOnUse"><stop offset="0" style="stop-color:#1488cc"/><stop offset="1" style="stop-color:#2b32b2"/></linearGradient><path fill="url(#SVGID_2_)" d="M196.221,193.779c0,3.648-2.959,6.607-6.605,6.607H66.386c-3.648,0-6.607-2.959-6.607-6.607v-15.784 c0-3.647,2.959-6.606,6.607-6.606h123.229c3.646,0,6.605,2.959,6.605,6.606V193.779z"/></g><g><linearGradient id="SVGID_3_" x1="651.779" x2="788.221" y1="263.051" y2="263.051" gradientTransform="matrix(1 0 0 1 -592 -191)" gradientUnits="userSpaceOnUse"><stop offset="0" style="stop-color:#1488cc"/><stop offset="1" style="stop-color:#2b32b2"/></linearGradient><path fill="url(#SVGID_3_)" d="M196.221,79.943c0,3.649-2.959,6.607-6.605,6.607H66.386c-3.648,0-6.607-2.958-6.607-6.607V64.159 c0-3.647,2.959-6.607,6.607-6.607h123.229c3.646,0,6.605,2.958,6.605,6.607V79.943z"/></g></svg>